# File created by Blade
# Date/Time:  Thu Jan 22 16:31:11 2015
# Frame Rate: 120.000 fps
#------------------------------------------------------
:FULLY-SPECIFIED
:DEGREES
599
root 26.584788 18.052049 -0.407881 1.566747 26.867493 -20.848218
RightUpLeg 16.598468 -6.023565 -36.454247
RightLeg 0.669312 -0.000000 -0.000000
RightFoot -18.679059 -16.112583 39.908635
RightToeBase 17.737473 -0.000000 -0.000000
LeftUpLeg -102.570938 28.281107 6.920887
LeftLeg 133.601081 -0.000000 -0.000000
LeftFoot -29.916113 -1.308267 -25.079242
LeftToeBase -16.585929 -0.000000 0.000000
Spine 31.811948 -0.871358 -53.438690
RightShoulder -13.941810 5.125087 -45.028641
RightArm 19.905019 67.085100 -22.052992
RightForeArm -2.291288 -0.000000 15.566227
RightHand 14.958635 -0.000000 -43.938160
RightHandThumb1 -24.326973 -0.000000 -32.862282
LeftShoulder -16.425101 41.230115 14.059055
LeftArm 87.249083 -45.558435 -125.686422
LeftForeArm -11.819295 0.000000 8.909004
LeftHand -28.225821 -0.000000 97.852124
LeftHandThumb1 -26.253704 0.000000 33.147579
Head 12.902197 14.815215 -48.351073
600
root 26.591361 18.051648 -0.415817 1.638166 26.892135 -20.799971
RightUpLeg 16.566585 -6.043406 -36.489403
RightLeg 0.671050 -0.000000 -0.000000
RightFoot -18.696273 -16.165755 39.884801
RightToeBase 17.730324 -0.000000 -0.000000
LeftUpLeg -102.622172 28.224510 6.836628
LeftLeg 133.588702 -0.000000 -0.000000
LeftFoot -29.930128 -1.310844 -25.091537
LeftToeBase -16.555913 -0.000000 0.000000
Spine 31.810388 -0.859395 -53.451116
RightShoulder -13.951269 5.119282 -45.030030
RightArm 20.102597 67.094044 -21.881478
RightForeArm -2.347353 -0.000000 15.602188
RightHand 15.035100 -0.000000 -44.111842
RightHandThumb1 -24.326973 -0.000000 -32.862282
LeftShoulder -16.399895 41.243599 14.070754
LeftArm 87.262524 -45.495153 -125.644543
LeftForeArm -11.842666 -0.000000 8.888536
LeftHand -28.218597 -0.000000 97.877182
LeftHandThumb1 -26.253704 0.000000 33.147579
Head 12.944588 14.731201 -48.317166
601
root 26.598796 18.052071 -0.426160 1.747401 26.916545 -20.743258
RightUpLeg 16.502319 -6.047658 -36.521756
RightLeg 0.677092 -0.000000 -0.000000
RightFoot -18.725782 -16.254379 39.867448
RightToeBase 17.787016 -0.000000 -0.000000
LeftUpLeg -102.713485 28.158340 6.715558
LeftLeg 133.571160 -0.000000 -0.000000
LeftFoot -29.954059 -1.264271 -25.087893
LeftToeBase -16.537118 -0.000000 0.000000
Spine 31.749238 -0.864174 -53.480530
RightShoulder -13.887092 5.062773 -44.960910
RightArm 20.188639 67.155215 -21.876425
RightForeArm -2.409337 -0.000000 15.588046
RightHand 15.100068 -0.000000 -44.147250
RightHandThumb1 -24.326973 -0.000000 -32.862282
LeftShoulder -16.317435 41.319895 14.140520
LeftArm 87.358777 -45.425867 -125.742443
LeftForeArm -11.782458 -0.000000 8.873075
LeftHand -28.234964 -0.000000 97.872972
LeftHandThumb1 -26.253704 0.000000 33.147579
Head 13.082222 14.927911 -48.096134
602
root 26.603513 18.051686 -0.433888 1.814060 26.936410 -20.707519
RightUpLeg 16.465619 -6.069154 -36.545201
RightLeg 0.672202 -0.000000 -0.000000
RightFoot -18.739216 -16.298268 39.844891
RightToeBase 17.704590 -0.000000 -0.000000
LeftUpLeg -102.768919 28.116265 6.644954
LeftLeg 133.560836 -0.000000 -0.000000
LeftFoot -29.964045 -1.274506 -25.094216
LeftToeBase -16.523417 -0.000000 0.000000
Spine 31.738960 -0.842069 -53.471134
RightShoulder -13.868536 5.075551 -44.972868
RightArm 20.305269 67.142958 -21.797308
RightForeArm -2.406637 -0.000000 15.583077
RightHand 15.115889 -0.000000 -44.072236
RightHandThumb1 -24.326973 -0.000000 -32.862282
LeftShoulder -16.266854 41.328775 14.167514
LeftArm 87.399011 -45.369149 -125.732372
LeftForeArm -11.804024 -0.000000 8.836097
LeftHand -28.227148 0.000000 97.871735
LeftHandThumb1 -26.253704 0.000000 33.147579
Head 13.117458 14.879614 -48.064897
603
root 26.608419 18.050716 -0.442082 1.864307 26.948440 -20.669387
RightUpLeg 16.436990 -6.072341 -36.574929
RightLeg 0.676396 -0.000000 -0.000000
RightFoot -18.753984 -16.314764 39.858651
RightToeBase 17.696763 -0.000000 -0.000000
LeftUpLeg -102.809697 28.077561 6.576052
LeftLeg 133.554274 -0.000000 -0.000000
LeftFoot -29.978063 -1.268804 -25.111370
LeftToeBase -16.470867 -0.000000 0.000000
Spine 31.757509 -0.838497 -53.459021
RightShoulder -13.926762 5.066039 -45.026905
RightArm 20.673645 67.244134 -21.437451
RightForeArm -2.552982 0.000000 15.620856
RightHand 15.074066 -0.000000 -44.159647
RightHandThumb1 -24.326973 -0.000000 -32.862282
LeftShoulder -16.255729 41.292092 14.142162
LeftArm 87.350453 -45.342715 -125.557064
LeftForeArm -11.909059 0.000000 8.730024
LeftHand -28.220654 -0.000000 97.804324
LeftHandThumb1 -26.253704 0.000000 33.147579
Head 13.045110 14.754063 -48.095252
604
root 26.613045 18.050328 -0.449300 1.911056 26.962553 -20.639541
RightUpLeg 16.415324 -6.091627 -36.600830
RightLeg 0.670670 -0.000000 -0.000000
RightFoot -18.740627 -16.325038 39.827089
RightToeBase 17.679222 -0.000000 -0.000000
LeftUpLeg -102.848741 28.043248 6.518537
LeftLeg 133.547841 -0.000000 -0.000000
LeftFoot -29.969194 -1.268212 -25.102867
LeftToeBase -16.507642 -0.000000 0.000000
Spine 31.770630 -0.819909 -53.448345
RightShoulder -13.971653 5.036818 -45.024396
RightArm 20.987181 67.321164 -21.199853
RightForeArm -2.610197 -0.000000 15.579918
RightHand 15.017071 -0.000000 -44.115477
RightHandThumb1 -24.326973 -0.000000 -32.862282
LeftShoulder -16.250730 41.287712 14.135947
LeftArm 87.345930 -45.278656 -125.432257
LeftForeArm -11.965325 0.000000 8.611485
LeftHand -28.241254 -0.000000 97.779497
LeftHandThumb1 -26.253704 0.000000 33.147579
Head 13.009586 14.664343 -48.112006
605
root 26.615779 18.050501 -0.454233 1.941421 26.981533 -20.624801
RightUpLeg 16.400923 -6.163880 -36.627635
RightLeg 0.678511 -0.000000 -0.000000
RightFoot -18.716150 -16.286793 39.815991
RightToeBase 17.676183 -0.000000 -0.000000
LeftUpLeg -102.877366 28.011716 6.480473
LeftLeg 133.539167 -0.000000 -0.000000
LeftFoot -29.985807 -1.264603 -25.093096
LeftToeBase -16.473657 -0.000000 0.000000
Spine 31.790697 -0.810888 -53.425508
RightShoulder -13.996812 5.000923 -45.022134
RightArm 21.240757 67.409488 -21.022801
RightForeArm -2.560546 -0.000000 15.547442
RightHand 14.966021 -0.000000 -44.214331
RightHandThumb1 -24.326973 -0.000000 -32.862282
LeftShoulder -16.245992 41.283093 14.119240
LeftArm 87.290658 -45.233521 -125.204611
LeftForeArm -12.102455 -0.000000 8.441908
LeftHand -28.215396 -0.000000 97.730511
LeftHandThumb1 -26.253704 0.000000 33.147579
Head 12.942801 14.600273 -48.159529
606
root 26.619840 18.049120 -0.460538 1.979969 26.997373 -20.595891
RightUpLeg 16.382029 -6.213200 -36.667353
RightLeg 0.696062 -0.000000 -0.000000
RightFoot -18.700842 -16.253046 39.829803
RightToeBase 17.681823 -0.000000 -0.000000
LeftUpLeg -102.913301 27.981044 6.424968
LeftLeg 133.535907 -0.000000 -0.000000
LeftFoot -29.980865 -1.257233 -25.082974
LeftToeBase -16.509355 -0.000000 0.000000
Spine 31.809347 -0.793138 -53.412964
RightShoulder -14.024066 4.976941 -45.004000
RightArm 21.449527 67.442745 -20.916615
RightForeArm -2.377909 -0.000000 15.504207
RightHand 15.021830 0.000000 -44.096346
RightHandThumb1 -24.326973 -0.000000 -32.862282
LeftShoulder -16.253669 41.311758 14.094701
LeftArm 87.313026 -45.149562 -125.061135
LeftForeArm -12.190582 -0.000000 8.272786
LeftHand -28.165287 0.000000 97.700642
LeftHandThumb1 -26.253704 0.000000 33.147579
Head 12.902137 14.474586 -48.154770
607
root 26.621435 18.049363 -0.464390 1.996610 27.009032 -20.583822
RightUpLeg 16.375962 -6.274947 -36.693293
RightLeg 0.699138 -0.000000 -0.000000
RightFoot -18.663280 -16.225600 39.808096
RightToeBase 17.788644 -0.000000 -0.000000
LeftUpLeg -102.932482 27.964534 6.394273
LeftLeg 133.526943 -0.000000 -0.000000
LeftFoot -29.980400 -1.261470 -25.086713
LeftToeBase -16.503222 -0.000000 0.000000
Spine 31.828049 -0.773163 -53.402442
RightShoulder -14.035163 4.972376 -44.990953
RightArm 21.701439 67.494369 -20.743480
RightForeArm -2.249328 -0.000000 15.469566
RightHand 15.056584 -0.000000 -44.116080
RightHandThumb1 -24.326973 -0.000000 -32.862282
LeftShoulder -16.244796 41.318436 14.109171
LeftArm 87.297202 -45.102762 -124.936596
LeftForeArm -12.298704 0.000000 8.137048
LeftHand -28.158804 -0.000000 97.660433
LeftHandThumb1 -26.253704 0.000000 33.147579
Head 12.846155 14.376060 -48.169739
608
root 26.622764 18.048531 -0.467986 2.019594 27.008742 -20.571205
RightUpLeg 16.360439 -6.293916 -36.711390
RightLeg 0.695286 -0.000000 -0.000000
RightFoot -18.643510 -16.204588 39.808599
RightToeBase 17.720545 -0.000000 -0.000000
LeftUpLeg -102.955816 27.962928 6.365596
LeftLeg 133.527016 -0.000000 -0.000000
LeftFoot -29.980626 -1.261783 -25.071540
LeftToeBase -16.478817 -0.000000 0.000000
Spine 31.824691 -0.752713 -53.387954
RightShoulder -14.040454 4.951661 -44.976643
RightArm 21.939904 67.549183 -20.575682
RightForeArm -2.290865 -0.000000 15.463126
RightHand 15.003205 -0.000000 -44.074151
RightHandThumb1 -24.326973 -0.000000 -32.862282
LeftShoulder -16.237775 41.351279 14.108272
LeftArm 87.297626 -45.041132 -124.807667
LeftForeArm -12.394641 -0.000000 7.989850
LeftHand -28.131012 0.000000 97.633793
LeftHandThumb1 -26.253704 0.000000 33.147579
Head 12.794685 14.340361 -48.146357
609
root 26.624179 18.048136 -0.472486 2.036848 27.011498 -20.552632
RightUpLeg 16.346279 -6.309537 -36.735051
RightLeg 0.702967 -0.000000 -0.000000
RightFoot -18.640510 -16.194668 39.824056
RightToeBase 17.710217 -0.000000 -0.000000
LeftUpLeg -102.969421 27.955951 6.333782
LeftLeg 133.522025 -0.000000 -0.000000
LeftFoot -29.979744 -1.270611 -25.065062
LeftToeBase -16.453830 -0.000000 0.000000
Spine 31.854570 -0.738888 -53.381745
RightShoulder -14.086366 4.949824 -44.979815
RightArm 22.299370 67.664796 -20.272385
RightForeArm -2.323364 -0.000000 15.463362
RightHand 15.016185 -0.000000 -43.978588
RightHandThumb1 -24.326973 -0.000000 -32.862282
LeftShoulder -16.261832 41.344271 14.085027
LeftArm 87.303613 -44.997992 -124.670540
LeftForeArm -12.494157 -0.000000 7.817766
LeftHand -28.137161 -0.000000 97.613923
LeftHandThumb1 -26.253704 0.000000 33.147579
Head 12.679421 14.181670 -48.207065
